<?xml version="1.0" encoding="utf-8"?>
<!-- Generator: Adobe Illustrator 26.2.1, SVG Export Plug-In . SVG Version: 6.00 Build 0)  -->
<svg version="1.1" id="Layer_1" xmlns="http://www.w3.org/2000/svg" xmlns:xlink="http://www.w3.org/1999/xlink" x="0px" y="0px"
	 viewBox="0 0 104.9 105.3" style="enable-background:new 0 0 104.9 105.3;" xml:space="preserve">
<style type="text/css">
	.st0{fill:#DBD6F4;}
	.st1{fill:#A68040;}
	.st2{fill:#F0A176;}
	.st3{fill:#0E3B45;}
	.st4{fill:#451535;}
</style>
<g>
	<g>
		<g>
			<circle id="SVGID_00000111155595367112640550000008594454043108717501_" class="st0" cx="52.3" cy="52.7" r="52.4"/>
		</g>
	</g>
	<g>
		<path class="st1" d="M82.3,37.4c-0.7-1.2-0.8-1.9-0.8-2.1c0-0.7,0.2-0.9,0.5-2.4c0.3-1.2,0.4-1.8,0.4-2.5c0-1.4-0.7-2.4-1-2.9
			c-1.1-1.7-2.2-1.2-3.1-2.7c-0.9-1.4-0.2-2.3-1.3-3.4c-0.5-0.5-1.1-0.8-2.4-1.3c-1.8-0.7-2.2-0.4-3.3-1c-0.4-0.2-0.7-0.4-0.9-0.7
			c-1-0.9-1.4-1.5-1.9-2c-1.4-1.4-3.3-1.7-3.7-1.7c-1.5-0.2-2.7,0.2-3.4,0.5c-1.4,0.5-2.4,1.2-3,1.8c-1-0.8-3.1-2.2-5.9-2.3
			c-1.2,0-3.1-0.1-4.7,1c-0.7,0.5-1.3,1.3-2.9,2.1c-0.5,0.3-1,0.5-1.3,0.6c-1.9,0.8-2.8,0.7-5.2,1.4c-0.9,0.3-1.4,0.4-1.9,0.6
			c-1.8,0.8-2.8,2-3.1,2.4c-0.1,0.2-0.2,0.3-0.4,0.6c-1.8,2.5-1.9,3.4-3.2,4.6c-0.3,0.3-0.6,0.5-1.1,0.8c-1.4,1-1.9,1.1-2.5,1.8
			c-0.5,0.5-0.7,1-1,1.5c-0.7,1.2-0.8,2.4-0.9,2.9c0,0.3,0,0.2-0.1,0.8c-0.2,1.8-0.4,2.6-0.5,2.9c-0.2,0.6-0.3,1-0.6,1.5
			c-0.5,1-0.8,1.3-1.1,2c-0.1,0.2-0.3,0.9-0.3,1.8c0.1,1.4,0.9,1.6,0.8,2.9c0,0.5-0.2,0.9-0.4,1.3c-0.4,0.9-0.8,1.1-1.2,2
			c-0.1,0.3-0.3,0.7-0.4,1.4s0,1.2,0.4,2.9c0.3,1.2,0.4,1.8,0.4,1.8c-0.1,1.6-1.5,1.9-1.9,4.1c-0.2,0.7-0.1,1.3-0.1,1.6
			c0,1.5,0.6,2,0.8,3.7c0.1,0.6,0.2,1.4,0.1,2.4c-0.2,1.5-0.7,1.9-0.8,3.4c0,0.3-0.1,1,0.1,1.9c0.4,1.6,1.1,1.8,1.6,3.4
			c0.1,0.5,0.4,1.3,0.2,2.3c-0.2,1.2-0.7,1.5-1.1,2.8c-0.2,0.8-0.2,1.5-0.1,2.5c0.1,2.4,0.7,3.1,0.8,4.6c0.2,2.4-0.9,3.5-1.3,4.7
			c2.3,1.9,4.8,3.5,7.5,5c2.2,1,2.5,1.3,3.8,1.9c0.2,0.1,0.4,0.2,0.6,0.3c0.2,0.1,0.5,0.2,0.8,0.3l0,0c1,0.4,1.9,0.8,2.9,1.1
			c0.3,0.1,0.6,0.2,0.9,0.3c0.4,0.1,0.8,0.3,1.2,0.4c0.3,0.1,0.7,0.2,1.1,0.3c0.4,0.1,0.7,0.2,1.1,0.3c0,0,0,0,0.1,0
			c0.8,0.2,1.6,0.4,2.4,0.5c0.1,0,0.2,0,0.3,0.1c0.7,0.1,1.5,0.3,2.2,0.4c0.2,0,0.4,0.1,0.6,0.1c0.6,0.1,1.3,0.2,1.9,0.2
			c0.4,0,0.8,0.1,1.2,0.1c0.5,0,0.9,0.1,1.4,0.1c0.9,0,1.8,0.1,2.7,0.1c0.8,0,1.5,0,2.3-0.1c0.2,0,0.4,0,0.6,0
			c0.6,0,1.2-0.1,1.8-0.1c0.4,0,0.8-0.1,1.1-0.1l0,0c8.7-3.7,14.4-11.5,14.5-15.3c0-2.7,0.1-5.4,0.2-8.2c0.2-2.9,0.2-1.3,0.4-4.3
			c0.1-1.2,0.1-1.7,0.4-2.4c0.6-1.3,1.7-2.1,2.2-2.4c1.2-0.8,1.6-0.4,2.9-1.2c0.5-0.3,1.2-0.8,1.8-1.6c0.8-1.3,0.7-2.7,0.7-3.4
			c-0.1-1.5-0.6-1.7-0.5-3c0-0.4,0.2-1.3,0.8-2c0.5-0.6,0.8-0.6,1.6-1.3c0.3-0.3,1.1-1,1.4-1.9c0.3-0.8,0.1-1.6-0.3-3.1
			c-0.3-1.4-0.6-1.7-0.7-2.8c-0.1-0.8,0-1.4,0-1.8c0-0.6,0.1-1.7,0.5-2.9c0.5-1.4,0.8-1.3,1.2-2.2c0.5-1.6,0.1-3.4-0.7-4.7
			C83.8,39,83.3,39,82.3,37.4z"/>
		<path class="st2" d="M50,45.1c0.6-0.2,1.5-0.4,2.6-0.5c0.8-0.1,0.7,0,1.4-0.1c1.4-0.1,2.5-0.5,3.3-0.8c0.4-0.2,0.8-0.3,1.3-0.5
			c1.4-0.7,1.8-1.2,3.2-2.1c0.5-0.3,1-0.6,1.6-0.9c2-0.8,2.9-0.4,4.6-1.3c0.5-0.3,0.9-0.5,1.2-0.8c1.7-1.3,2.7-3,3.3-4.3
			c0.2,0.3,0.3,0.6,0.4,0.9c0.2,0.3,0.3,0.7,0.4,1.1l0,0c0,0,0.5,1.4,0.5,2.9c0.3,22.6-7,28.8-7,28.8c-0.6,0.5-2,1.7-4.2,2.1
			c-1.8,0.3-3.3-0.1-4.8-0.5c-1.4-0.4-3.4-1.2-5.6-2.8c-0.4,2.1-0.7,5.2,0.1,8.8c0.3,1.7,0.4,3.3,1.6,4.9c0.5,0.8,1.1,1.3,1.6,1.6
			c-0.4,0.6-0.9,1.4-1.8,2.2c-1.5,1.4-2.9,2.1-3.9,2.5c-0.9,0.4-2.3,0.9-4,1.2c-1.1-3.6-1.5-6.6-1.6-8.6c-0.2-3.7,0.3-6.8,1.2-11.7
			c0.6-3.5,1-4.8,1.2-7.9c0.2-2.6,0.2-4.7,0.1-6.2c-0.6,0.1-1.6,0.2-2.5-0.2c-2.8-1.2-2.7-5.7-2.7-6.2c0-1,0.1-2.7,1.3-4.2
			c0.3-0.4,1.4-1.6,3.1-1.6c0.3,0,1.8,0,2.9,1.2C50.2,43.3,50,44.9,50,45.1z"/>
		<path class="st3" d="M83.7,94.7c-0.8-2.3-1.6-4.2-2.3-5.7c-2.1-3.9-5-7-5-7c-1.4-1.4-2.6-2.8-4.7-3.8c-2.7-1.4-5.4-1.6-6.9-1.6
			c-3.9,0-7.8,0-11.8,0c-0.2,0.6-1.2,3.6-4.2,5.2c-1.6,0.8-3.1,0.9-4,0.9c0.4,3.4,0.9,6.9,1.5,10.6c0.7,4,1.4,7.9,2.2,11.6
			c1.3,0.1,2.6,0.2,3.8,0.2C64.1,105.1,74.9,101.2,83.7,94.7z"/>
		<path class="st1" d="M47.9,86.8c0,0,0.2-0.6,0.5-1.9c0.5-1.7,0.6-2.2,0.6-2.9c0-0.7-0.2-1.2-0.3-1.4c-0.3-0.9-0.7-1.2-1-2.1
			c-0.1-0.4-0.3-0.8-0.3-1.3c0-1.2,0.8-1.5,1-2.9c0.1-0.9-0.1-1.6-0.1-1.8c-0.2-0.8-0.5-1.1-0.9-2.2c-0.2-0.6-0.4-1-0.4-1.5
			c-0.2-1.3,0.3-1.7,0.6-3.9c0.1-0.7,0.1-1.1,0.1-1.5c0-0.5-0.1-1.7-0.8-2.7c-0.5-0.8-1.2-1.2-2.2-1.8c-0.4-0.3-0.8-0.4-1.1-0.6
			c-1.4-0.7-1.8-0.6-2.4-1.2c-0.3-0.3-0.5-0.5-0.9-1c-1.4-1.8-1.1-2.2-2.7-4.6c-1.4-2-2.3-2.7-2.6-3c-1.2-1-2.3-1.4-2.5-1.5
			c-1.3-0.5-1.9-0.4-2.8-0.5L26,98c5.1,3,10.7,5.1,16.7,6.2l4,0.6c0.6,0.1,1.1,0.1,1.7,0.1c0.1-0.1,0.1-0.3,0.2-0.5
			c0.3-0.9,0.3-1.6,0.3-1.9c0-1.6-0.5-2-0.6-3.5c-0.1-1.1,0.1-1.9,0.2-2.4c0.4-1.7,0.9-2.1,1.1-3.7c0-0.4,0.1-1,0-1.7
			C49.2,88.9,47.9,88.5,47.9,86.8z"/>
		<polygon class="st4" points="50.8,61.2 46.5,51 42.2,61.2 		"/>
	</g>
</g>
</svg>
